<svg width="136" height="22" viewBox="0 0 136 22" fill="none" xmlns="http://www.w3.org/2000/svg">
<path d="M11.0785 12.5031C12.003 12.7362 12.8217 13.2819 13.3999 14.0505C13.9643 14.8489 14.2537 15.8138 14.2234 16.796C14.2533 17.4682 14.1251 18.1381 13.8494 18.7501C13.5737 19.362 13.1584 19.8985 12.638 20.3151C11.3681 21.2286 9.83009 21.6765 8.27645 21.5852H1.93491C1.73176 21.5971 1.52831 21.5678 1.33634 21.4993C1.14437 21.4308 0.967698 21.3242 0.816541 21.1859C0.675936 21.0369 0.567296 20.8599 0.497489 20.6661C0.427681 20.4723 0.398224 20.2659 0.410978 20.06V5.51197C0.39899 5.30694 0.428823 5.1016 0.49861 4.90881C0.568397 4.71603 0.676633 4.53995 0.816541 4.39161C0.967698 4.25328 1.14437 4.14675 1.33634 4.07821C1.52831 4.00966 1.73176 3.98046 1.93491 3.99228H8.03339C9.54017 3.90379 11.0328 4.32992 12.2734 5.20276C12.778 5.59981 13.1811 6.11442 13.4485 6.70307C13.7159 7.29173 13.8398 7.93711 13.8096 8.58464C13.8298 9.4497 13.5756 10.2984 13.0845 11.0056C12.5827 11.7017 11.8825 12.2244 11.0785 12.5031ZM3.50801 11.4022H7.51449C9.69388 11.4022 10.7836 10.5785 10.7836 8.93128C10.8096 8.5793 10.7491 8.22628 10.6075 7.90391C10.4659 7.58154 10.2477 7.29993 9.97245 7.08436C9.23359 6.63201 8.37504 6.42279 7.51449 6.48535H3.50801V11.4022ZM7.93234 19.0894C8.81249 19.162 9.69212 18.9431 10.4395 18.4654C10.7126 18.227 10.9262 17.9263 11.0629 17.5879C11.1996 17.2496 11.2555 16.8832 11.226 16.5187C11.2535 16.1495 11.1956 15.7789 11.0569 15.4366C10.9182 15.0942 10.7026 14.7896 10.4272 14.5469C9.68954 14.0555 8.81183 13.8272 7.93234 13.898H3.50801V19.0894H7.93234ZM26.1213 9.13095C26.5351 9.10861 26.9411 9.25199 27.2519 9.53029C27.3925 9.66887 27.5025 9.83623 27.5745 10.0213C27.6466 10.2063 27.679 10.4048 27.6698 10.6035V20.2874C27.6771 20.4833 27.6425 20.6786 27.5682 20.8596C27.494 21.0405 27.3818 21.203 27.2396 21.3356C26.9313 21.6099 26.5308 21.7529 26.1213 21.735C25.7343 21.7552 25.3549 21.6208 25.0643 21.3606C24.931 21.2281 24.827 21.0684 24.7592 20.8919C24.6914 20.7155 24.6614 20.5264 24.6711 20.3373V19.7133C24.3138 20.3591 23.786 20.8908 23.1471 21.2483C22.4833 21.6123 21.7385 21.7971 20.9841 21.7849C18.0346 21.7849 16.5598 20.1044 16.5598 16.7433V10.6035C16.5505 10.4048 16.583 10.2063 16.655 10.0213C16.7271 9.83623 16.837 9.66887 16.9776 9.53029C17.2804 9.25486 17.6777 9.11142 18.0837 9.13095C18.4976 9.10861 18.9035 9.25199 19.2144 9.53029C19.355 9.66887 19.465 9.83623 19.537 10.0213C19.609 10.2063 19.6415 10.4048 19.6322 10.6035V16.7682C19.5792 17.4503 19.7617 18.1298 20.1484 18.69C20.3554 18.9109 20.6087 19.0817 20.8895 19.1897C21.1703 19.2977 21.4715 19.3402 21.7707 19.314C22.1538 19.3301 22.5358 19.2614 22.8901 19.1127C23.2445 18.964 23.5628 18.7389 23.8231 18.4529C24.3597 17.8205 24.6369 17.0031 24.5973 16.1692V10.6035C24.5881 10.4048 24.6205 10.2063 24.6926 10.0213C24.7646 9.83623 24.8746 9.66887 25.0152 9.53029C25.3179 9.25486 25.7152 9.11142 26.1213 9.13095ZM32.0941 21.735C31.695 21.75 31.305 21.6119 31.0017 21.3481C30.8543 21.2066 30.7394 21.0338 30.665 20.8421C30.5907 20.6504 30.5588 20.4445 30.5715 20.2389V10.6021C30.5577 10.398 30.5892 10.1934 30.6636 10.0034C30.7381 9.8133 30.8536 9.64263 31.0017 9.50394C31.3084 9.24747 31.6971 9.11425 32.0941 9.12957C32.4951 9.11532 32.8878 9.24822 33.2002 9.50394C33.3516 9.64058 33.4701 9.81058 33.5468 10.0009C33.6235 10.1913 33.6563 10.3969 33.6426 10.6021V20.2389C33.6551 20.4456 33.6219 20.6525 33.5453 20.8445C33.4688 21.0364 33.3508 21.2085 33.2002 21.3481C32.8909 21.6109 32.4971 21.7486 32.0941 21.735ZM38.0424 21.735C37.6433 21.75 37.2533 21.6119 36.9499 21.3481C36.8026 21.2066 36.6876 21.0338 36.6133 20.8421C36.539 20.6504 36.507 20.4445 36.5198 20.2389V5.33726C36.506 5.1332 36.5375 4.92858 36.6119 4.73851C36.6863 4.54845 36.8019 4.37778 36.9499 4.23909C37.2566 3.98262 37.6454 3.8494 38.0424 3.86471C38.4434 3.85046 38.8361 3.98337 39.1485 4.23909C39.2998 4.37573 39.4184 4.54573 39.4951 4.73608C39.5718 4.92643 39.6045 5.13207 39.5909 5.33726V20.2375C39.6034 20.4442 39.5702 20.6511 39.4936 20.8431C39.417 21.035 39.2991 21.2071 39.1485 21.3467C38.8394 21.61 38.4456 21.7482 38.0424 21.735ZM48.7099 19.4138C49.5292 19.4638 49.9389 19.8381 49.9389 20.537C49.9468 20.7183 49.9066 20.8985 49.8225 21.0588C49.7384 21.219 49.6136 21.3534 49.461 21.448C49.0436 21.6771 48.5664 21.7686 48.0954 21.71L47.4291 21.6601C44.6761 21.4604 43.2997 19.9629 43.2997 17.1676V11.7266H42.0707C41.7067 11.7509 41.3457 11.6449 41.0506 11.4271C40.9292 11.319 40.834 11.184 40.7722 11.0325C40.7104 10.8811 40.6837 10.7172 40.6942 10.5536C40.6837 10.39 40.7104 10.2261 40.7722 10.0746C40.834 9.92315 40.9292 9.78814 41.0506 9.68004C41.3457 9.46222 41.7067 9.35625 42.0707 9.38054H43.2997V7.08436C43.2904 6.88561 43.3229 6.68714 43.3949 6.50211C43.467 6.31708 43.5769 6.14972 43.7175 6.01114C44.0284 5.73285 44.4344 5.58947 44.8482 5.61181C45.2542 5.59228 45.6515 5.73572 45.9543 6.01114C46.0949 6.14972 46.2048 6.31708 46.2769 6.50211C46.3489 6.68714 46.3814 6.88561 46.3721 7.08436V9.38331H48.4614C48.8254 9.35902 49.1864 9.46499 49.4815 9.68281C49.6029 9.79092 49.6981 9.92593 49.7599 10.0774C49.8217 10.2289 49.8484 10.3928 49.8379 10.5564C49.8484 10.72 49.8217 10.8838 49.7599 11.0353C49.6981 11.1868 49.6029 11.3218 49.4815 11.4299C49.1864 11.6477 48.8254 11.7537 48.4614 11.7294H46.3721V17.395C46.3721 18.6263 46.9293 19.2835 48.0435 19.3667L48.7099 19.4138Z" fill="#DCDFED"/>
<path d="M129.623 0.786499H125.911C125.864 0.786682 125.818 0.805878 125.785 0.839903C125.751 0.873928 125.732 0.920023 125.732 0.968141V1.62191C125.732 1.67003 125.751 1.71613 125.785 1.75015C125.818 1.78418 125.864 1.80337 125.911 1.80356H127.182V5.45651C127.182 5.50463 127.201 5.55072 127.234 5.58475C127.268 5.61877 127.313 5.63797 127.361 5.63815H128.172C128.219 5.63797 128.264 5.61877 128.298 5.58475C128.332 5.55072 128.35 5.50463 128.351 5.45651V1.80356H129.621C129.669 1.80337 129.714 1.78418 129.748 1.75015C129.781 1.71613 129.8 1.67003 129.8 1.62191V0.968141C129.801 0.921482 129.784 0.876198 129.753 0.842169C129.722 0.80814 129.678 0.788128 129.632 0.786499H129.623ZM135.29 5.44195L134.932 0.954275C134.929 0.908791 134.908 0.866418 134.875 0.835586C134.842 0.804754 134.799 0.787724 134.754 0.787886H133.776C133.739 0.788098 133.703 0.799946 133.673 0.821798C133.643 0.843649 133.62 0.874431 133.608 0.909905L132.955 2.83725C132.847 3.14924 132.714 3.63731 132.714 3.63731H132.701C132.701 3.63731 132.569 3.15201 132.46 2.83725L131.807 0.909905C131.795 0.874596 131.772 0.843983 131.742 0.822172C131.712 0.800361 131.676 0.788397 131.639 0.787886H130.663C130.618 0.788352 130.575 0.805595 130.542 0.836306C130.509 0.867016 130.489 0.909028 130.484 0.954275L130.12 5.44195C130.118 5.46576 130.12 5.48974 130.128 5.5125C130.135 5.53526 130.146 5.55635 130.161 5.57458C130.177 5.59281 130.195 5.6078 130.216 5.61871C130.237 5.62962 130.26 5.63623 130.284 5.63815H131.114C131.159 5.63777 131.202 5.6202 131.236 5.58888C131.269 5.55757 131.289 5.51479 131.293 5.46899L131.429 3.45359C131.444 3.18227 131.444 2.91029 131.429 2.63897H131.443C131.443 2.63897 131.603 3.14785 131.71 3.45359L132.167 4.73826C132.18 4.77323 132.203 4.80345 132.233 4.82489C132.263 4.84632 132.299 4.85794 132.335 4.8582H133.081C133.118 4.85804 133.154 4.84646 133.184 4.82501C133.214 4.80357 133.237 4.77329 133.249 4.73826L133.708 3.45359C133.815 3.14854 133.975 2.63897 133.975 2.63897H133.984C133.969 2.91029 133.969 3.18227 133.984 3.45359L134.121 5.46899C134.124 5.51491 134.144 5.55787 134.177 5.58925C134.211 5.62062 134.254 5.6381 134.3 5.63815H135.104C135.128 5.6387 135.151 5.6345 135.173 5.62577C135.196 5.61704 135.216 5.60397 135.233 5.58729C135.25 5.57062 135.264 5.55067 135.274 5.52859C135.283 5.5065 135.288 5.48272 135.289 5.45859C135.289 5.45305 135.289 5.44749 135.289 5.44195H135.29Z" fill="#4185F4"/>
<path d="M32.9633 5.62778C33.0638 5.63738 33.1612 5.6684 33.2491 5.71881C33.3369 5.76922 33.4134 5.8379 33.4733 5.92035C33.8516 6.30998 34.2244 6.70515 34.6204 7.07606C34.8457 7.28405 34.673 7.38735 34.5453 7.50174C34.4176 7.61614 34.3357 7.86295 34.1001 7.6092C33.6905 7.16758 33.2596 6.74398 32.8315 6.31968C32.745 6.20619 32.6799 6.07736 32.6397 5.93976C31.2359 6.58868 30.2862 6.42021 29.5986 5.3976C29.3394 4.99835 29.227 4.51915 29.2811 4.04412C29.3351 3.56908 29.5522 3.12855 29.8943 2.79984C30.2247 2.44845 30.6686 2.22937 31.1448 2.18253C31.6211 2.1357 32.0981 2.26424 32.4888 2.54471C33.457 3.23107 33.6092 4.19197 32.9633 5.62778ZM32.6827 4.3022C32.6879 4.03188 32.614 3.76606 32.4704 3.53842C32.3267 3.31078 32.1197 3.13156 31.8757 3.02346C31.6316 2.91536 31.3614 2.88325 31.0994 2.93119C30.8373 2.97913 30.5952 3.10497 30.4036 3.29277C30.2121 3.48057 30.0797 3.72188 30.0234 3.98612C29.967 4.25036 29.9891 4.52565 30.0869 4.77712C30.1847 5.02858 30.3539 5.24491 30.5729 5.39869C30.7919 5.55246 31.0509 5.63678 31.3172 5.64095C31.673 5.64689 32.0166 5.50927 32.2726 5.25829C32.5286 5.00732 32.6761 4.66347 32.6827 4.3022Z" fill="#4185F4"/>
<path d="M59.4839 21.785C58.2736 21.7924 57.0688 21.62 55.9076 21.2733C54.9135 20.9977 53.9824 20.5266 53.167 19.8867C52.9828 19.7502 52.8348 19.5694 52.7361 19.3606C52.6375 19.1518 52.5913 18.9215 52.6017 18.6901C52.5954 18.3592 52.7042 18.0367 52.9089 17.7791C52.9915 17.6615 53.1002 17.5653 53.2261 17.4981C53.3521 17.4309 53.4918 17.3947 53.634 17.3923C53.9946 17.4131 54.3429 17.533 54.6418 17.7389C55.3116 18.2371 56.0595 18.6168 56.8539 18.862C57.685 19.1026 58.5461 19.2193 59.4102 19.2087C60.3682 19.2696 61.3234 19.0512 62.1631 18.5792C62.4704 18.383 62.7208 18.1075 62.8888 17.7808C63.0568 17.4541 63.1362 17.0879 63.119 16.7198C63.1227 16.4149 63.0404 16.1154 62.8819 15.8564C62.7235 15.5975 62.4954 15.39 62.2246 15.2583C61.2764 14.797 60.2722 14.4654 59.2381 14.2725C58.032 14.0305 56.854 13.6615 55.7233 13.1715C54.9169 12.8315 54.2132 12.2814 53.6832 11.5769C53.2011 10.8484 52.9601 9.98299 52.9949 9.10605C52.9823 8.11204 53.2838 7.14011 53.8552 6.33288C54.4675 5.48628 55.2962 4.82598 56.2517 4.42356C57.343 3.95233 58.5194 3.71852 59.7052 3.7372C61.7773 3.64518 63.812 4.3191 65.4322 5.63405C65.616 5.78192 65.7704 5.96404 65.8869 6.17065C65.9843 6.37672 66.0311 6.60363 66.0235 6.83205C66.0297 7.16295 65.921 7.4855 65.7162 7.74304C65.6336 7.86057 65.5249 7.95679 65.399 8.02398C65.2731 8.09116 65.1334 8.12743 64.9911 8.12989C64.8365 8.13143 64.6827 8.1061 64.5364 8.05502C64.3447 7.97862 64.1597 7.88585 63.9834 7.7777C63.3843 7.32009 62.727 6.94695 62.0293 6.66844C61.2829 6.40834 60.4967 6.28578 59.7079 6.30654C58.7788 6.25594 57.8567 6.49547 57.0656 6.9929C56.7563 7.20015 56.5047 7.48454 56.3347 7.81885C56.1647 8.15316 56.082 8.52619 56.0947 8.90222C56.0847 9.2188 56.1594 9.5322 56.3109 9.80908C56.4624 10.086 56.685 10.316 56.955 10.4746C57.8721 10.9679 58.8587 11.3145 59.88 11.5021C61.0952 11.7573 62.284 12.1287 63.4303 12.6113C64.2439 12.9464 64.9621 13.4826 65.5196 14.1712C66.0194 14.8551 66.2751 15.6913 66.2447 16.5423C66.2608 17.5225 65.9632 18.4814 65.3967 19.2752C64.7845 20.1028 63.9589 20.7425 63.0111 21.1236C61.8913 21.583 60.6915 21.8079 59.4839 21.785ZM78.1645 18.2159C78.2943 18.2123 78.4231 18.2398 78.5406 18.2962C78.658 18.3526 78.7607 18.4362 78.8404 18.5404C79.0236 18.7923 79.1149 19.1011 79.0985 19.4139C79.0807 19.6947 78.9862 19.9649 78.8255 20.1941C78.6649 20.4234 78.4444 20.6026 78.189 20.7117C77.5917 21.0446 76.956 21.3008 76.2964 21.4744C75.6398 21.659 74.9622 21.7555 74.2809 21.7614C73.4417 21.8058 72.6023 21.6784 71.8126 21.3866C71.023 21.0948 70.2992 20.6446 69.6845 20.0628C69.1036 19.4478 68.6533 18.7181 68.3615 17.9191C68.0698 17.1201 67.9428 16.2687 67.9885 15.4178C67.9665 14.267 68.2196 13.128 68.7259 12.0983C69.1908 11.1621 69.912 10.3821 70.8029 9.85203C71.7249 9.31179 72.774 9.03575 73.8384 9.05336C74.8279 9.02938 75.8051 9.2796 76.6651 9.77715C77.4701 10.2622 78.119 10.9741 78.5331 11.8265C78.9952 12.7982 79.2227 13.8676 79.1968 14.9463C79.1968 15.6618 78.8855 16.0195 78.2628 16.0195H71.0091C71.0212 16.9525 71.36 17.8505 71.9649 18.5528C72.2857 18.8401 72.6594 19.0598 73.0645 19.199C73.4696 19.3383 73.8979 19.3943 74.3246 19.364C74.7972 19.3727 75.2683 19.3053 75.7201 19.1643C76.1847 19.0062 76.6405 18.8229 77.0857 18.6152C77.4131 18.4055 77.7809 18.2693 78.1645 18.2159ZM73.9122 11.2525C73.5417 11.2351 73.1719 11.2973 72.8267 11.4349C72.4815 11.5725 72.1688 11.7825 71.9089 12.0511C71.3629 12.6929 71.0459 13.5028 71.0091 14.3501H76.5668C76.595 13.5166 76.334 12.6995 75.8294 12.0414C75.5866 11.7749 75.2889 11.566 74.9575 11.4297C74.6261 11.2933 74.2692 11.2328 73.9122 11.2525ZM86.669 9.05613C88.3404 9.05613 89.5817 9.47627 90.3928 10.3165C91.2039 11.1568 91.6095 12.4338 91.6095 14.1477V20.2375C91.6203 20.4322 91.5911 20.6269 91.5239 20.8095C91.4567 20.9921 91.3528 21.1585 91.219 21.2983C91.0725 21.4325 90.9012 21.5358 90.7151 21.6022C90.5289 21.6686 90.3317 21.6968 90.1347 21.6851C89.943 21.6923 89.7518 21.6604 89.5724 21.5913C89.393 21.5222 89.229 21.4174 89.0901 21.283C88.9544 21.1465 88.8483 20.9828 88.7784 20.8023C88.7086 20.6218 88.6766 20.4285 88.6845 20.2348V19.6884C88.417 20.3259 87.9564 20.8602 87.3695 21.2137C86.7402 21.5872 86.0213 21.7763 85.2925 21.76C84.5358 21.77 83.7873 21.599 83.1077 21.2608C82.4797 20.9524 81.9449 20.4783 81.5592 19.8881C81.1827 19.3113 80.9849 18.6333 80.9911 17.9414C80.9479 17.1733 81.189 16.4167 81.667 15.8199C82.2682 15.2234 83.0368 14.831 83.8669 14.6967C85.252 14.4314 86.6609 14.3152 88.07 14.3501H88.6845V13.7761C88.7393 13.1365 88.5551 12.4994 88.1684 11.9915C87.943 11.7859 87.6781 11.6299 87.3905 11.5333C87.1028 11.4366 86.7986 11.4014 86.4969 11.43C86.0062 11.4322 85.5182 11.5036 85.0467 11.6421C84.5552 11.7835 83.9734 11.9874 83.3016 12.2536C83.0151 12.4248 82.6973 12.5351 82.3676 12.578C82.2306 12.5819 82.0945 12.5548 81.969 12.4987C81.8436 12.4426 81.7321 12.3589 81.6425 12.2536C81.4468 12.0167 81.346 11.7138 81.3598 11.405C81.3536 11.1437 81.4266 10.8867 81.5687 10.6687C81.7543 10.4208 81.9942 10.22 82.2692 10.0822C82.9169 9.73772 83.6079 9.48487 84.323 9.33067C85.0925 9.15063 85.8794 9.05855 86.669 9.05613ZM85.907 19.5137C86.2803 19.5271 86.6521 19.4594 86.9975 19.3152C87.343 19.171 87.6542 18.9537 87.9103 18.6776C88.438 18.0894 88.7162 17.3138 88.6845 16.5187V15.9946H88.2421C87.3875 15.979 86.533 16.0291 85.6858 16.1443C85.211 16.1884 84.7587 16.3703 84.3831 16.6685C84.2498 16.8009 84.1458 16.9607 84.078 17.1371C84.0102 17.3136 83.9801 17.5026 83.9898 17.6918C83.9826 17.9379 84.0284 18.1826 84.1239 18.4089C84.2194 18.6352 84.3624 18.8376 84.5429 19.0021C84.9156 19.3448 85.4044 19.5281 85.907 19.5137ZM101.196 9.10605C101.373 9.08045 101.554 9.09183 101.728 9.13951C101.901 9.18718 102.063 9.27015 102.203 9.38336C102.331 9.5075 102.431 9.65891 102.495 9.82672C102.559 9.99453 102.585 10.1746 102.572 10.354C102.587 10.5336 102.566 10.7143 102.511 10.8857C102.456 11.0571 102.368 11.2157 102.252 11.3523C101.922 11.6156 101.517 11.7643 101.097 11.7766L100.36 11.8543C99.9575 11.8666 99.5617 11.9614 99.1964 12.133C98.831 12.3045 98.5036 12.5493 98.2337 12.8526C97.7702 13.4573 97.5309 14.2083 97.5578 14.9741V20.2153C97.5703 20.4221 97.537 20.629 97.4605 20.8209C97.3839 21.0129 97.266 21.185 97.1153 21.3246C96.8061 21.5874 96.4123 21.7251 96.0093 21.7115C95.6102 21.7265 95.2201 21.5884 94.9168 21.3246C94.7694 21.183 94.6545 21.0103 94.5802 20.8186C94.5058 20.6269 94.4739 20.421 94.4867 20.2153V10.5536C94.4744 10.3534 94.5067 10.153 94.5812 9.96722C94.6557 9.78143 94.7704 9.61505 94.9168 9.48043C95.2158 9.2264 95.5964 9.09312 95.986 9.10605C96.363 9.08844 96.7324 9.21792 97.0184 9.46795C97.1537 9.60149 97.259 9.76324 97.3269 9.94204C97.3948 10.1209 97.4237 10.3125 97.4117 10.5037V11.5021C97.6927 10.8063 98.1763 10.2141 98.7977 9.80489C99.4135 9.4051 100.12 9.17303 100.85 9.13101L101.196 9.10605ZM108.741 21.76C107.64 21.7837 106.552 21.5171 105.583 20.9863C104.684 20.4806 103.952 19.7153 103.481 18.7872C102.972 17.7587 102.718 16.6188 102.744 15.4677C102.721 14.3005 102.987 13.1463 103.518 12.1108C104.013 11.1609 104.769 10.3773 105.694 9.8548C106.68 9.30895 107.79 9.03367 108.914 9.05613C109.566 9.05896 110.215 9.15226 110.843 9.33345C111.445 9.49684 112.02 9.74912 112.55 10.0822C112.784 10.2124 112.981 10.403 113.119 10.6347C113.258 10.8664 113.334 11.1311 113.341 11.4022C113.356 11.7187 113.265 12.031 113.083 12.2883C113.005 12.3952 112.903 12.4816 112.785 12.5402C112.667 12.5989 112.538 12.628 112.407 12.6252C112.212 12.6221 112.02 12.5796 111.841 12.5004C111.638 12.414 111.441 12.3139 111.251 12.2009C110.923 12.0002 110.577 11.829 110.219 11.6893C109.856 11.5585 109.473 11.4951 109.088 11.5021C108.646 11.4754 108.204 11.5528 107.797 11.7281C107.389 11.9034 107.027 12.172 106.738 12.5129C106.138 13.3548 105.847 14.3834 105.915 15.4205C105.849 16.4492 106.141 17.4687 106.738 18.3019C107.026 18.6426 107.388 18.9112 107.795 19.0868C108.202 19.2623 108.644 19.3401 109.086 19.3141C109.458 19.3204 109.828 19.2569 110.178 19.1269C110.545 18.9796 110.902 18.8087 111.247 18.6152C111.452 18.487 111.665 18.3744 111.886 18.2783C112.058 18.2053 112.241 18.1671 112.427 18.166C112.557 18.1663 112.685 18.1979 112.8 18.2581C112.915 18.3184 113.015 18.4056 113.091 18.5126C113.278 18.7634 113.374 19.0718 113.364 19.3862C113.37 19.6441 113.306 19.8989 113.179 20.1224C113.028 20.3577 112.821 20.5507 112.577 20.684C112.029 21.0357 111.432 21.3017 110.806 21.473C110.134 21.6644 109.439 21.7609 108.741 21.76ZM122.187 9.05613C125.005 9.05613 126.414 10.7283 126.414 14.0728V20.2126C126.425 20.4142 126.395 20.6159 126.325 20.805C126.255 20.994 126.148 21.1663 126.009 21.3107C125.858 21.4491 125.681 21.5556 125.489 21.6242C125.297 21.6927 125.093 21.7219 124.89 21.7101C124.476 21.7324 124.071 21.589 123.76 21.3107C123.617 21.1681 123.507 20.9965 123.435 20.8072C123.363 20.6179 123.331 20.4152 123.342 20.2126V14.0728C123.399 13.3846 123.212 12.6984 122.813 12.1385C122.597 11.9202 122.337 11.7524 122.05 11.6468C121.764 11.5412 121.458 11.5003 121.154 11.527C120.761 11.509 120.368 11.5753 120.002 11.7215C119.636 11.8677 119.304 12.0906 119.028 12.3756C118.754 12.6823 118.543 13.0408 118.406 13.4305C118.269 13.8202 118.209 14.2335 118.229 14.6468V20.2126C118.24 20.4152 118.208 20.6179 118.136 20.8072C118.064 20.9965 117.954 21.1681 117.811 21.3107C117.501 21.589 117.095 21.7324 116.681 21.7101C116.478 21.7219 116.274 21.6927 116.082 21.6242C115.89 21.5556 115.713 21.4491 115.562 21.3107C115.423 21.1663 115.316 20.994 115.246 20.805C115.176 20.6159 115.146 20.4142 115.157 20.2126V5.2874C115.149 5.09146 115.184 4.89624 115.258 4.71524C115.333 4.53424 115.445 4.3718 115.587 4.23914C115.895 3.96488 116.296 3.82185 116.705 3.83981C117.107 3.81997 117.502 3.95351 117.811 4.21418C117.951 4.34273 118.061 4.50119 118.134 4.67815C118.206 4.85511 118.238 5.04615 118.229 5.23748V11.0528C118.628 10.4131 119.194 9.89853 119.864 9.56639C120.589 9.21571 121.384 9.04102 122.187 9.05613Z" fill="#4185F4"/>
</svg>
