<svg width="136" height="22" viewBox="0 0 136 22" fill="none" xmlns="http://www.w3.org/2000/svg">
<path d="M11.0785 11.8048C12.003 12.0378 12.8217 12.5836 13.3999 13.3522C13.9643 14.1505 14.2537 15.1154 14.2234 16.0976C14.2533 16.7699 14.1251 17.4397 13.8494 18.0517C13.5737 18.6637 13.1584 19.2002 12.638 19.6168C11.3681 20.5303 9.83009 20.9782 8.27645 20.8869H1.93491C1.73176 20.8987 1.52831 20.8695 1.33634 20.8009C1.14437 20.7324 0.967698 20.6259 0.816541 20.4875C0.675936 20.3385 0.567296 20.1616 0.497489 19.9678C0.427681 19.774 0.398224 19.5676 0.410978 19.3616V4.81361C0.39899 4.60857 0.428823 4.40323 0.49861 4.21045C0.568397 4.01767 0.676633 3.84159 0.816541 3.69325C0.967698 3.55491 1.14437 3.44839 1.33634 3.37984C1.52831 3.3113 1.73176 3.28209 1.93491 3.29391H8.03339C9.54017 3.20542 11.0328 3.63155 12.2734 4.5044C12.778 4.90145 13.1811 5.41606 13.4485 6.00471C13.7159 6.59336 13.8398 7.23874 13.8096 7.88627C13.8298 8.75134 13.5756 9.60008 13.0845 10.3072C12.5827 11.0033 11.8825 11.526 11.0785 11.8048ZM3.50801 10.7038H7.51449C9.69388 10.7038 10.7836 9.88018 10.7836 8.23292C10.8096 7.88094 10.7491 7.52791 10.6075 7.20554C10.4659 6.88318 10.2477 6.60156 9.97245 6.38599C9.23359 5.93365 8.37504 5.72442 7.51449 5.78699H3.50801V10.7038ZM7.93234 18.391C8.81249 18.4636 9.69212 18.2447 10.4395 17.7671C10.7126 17.5286 10.9262 17.2279 11.0629 16.8896C11.1996 16.5512 11.2555 16.1848 11.226 15.8203C11.2535 15.4511 11.1956 15.0806 11.0569 14.7382C10.9182 14.3959 10.7026 14.0912 10.4272 13.8486C9.68954 13.3571 8.81183 13.1288 7.93234 13.1997H3.50801V18.391H7.93234ZM26.1213 8.43259C26.5351 8.41025 26.9411 8.55363 27.2519 8.83192C27.3925 8.9705 27.5025 9.13786 27.5745 9.32289C27.6466 9.50792 27.679 9.70639 27.6698 9.90514V19.589C27.6771 19.785 27.6425 19.9802 27.5682 20.1612C27.494 20.3422 27.3818 20.5046 27.2396 20.6373C26.9313 20.9115 26.5308 21.0546 26.1213 21.0366C25.7343 21.0568 25.3549 20.9224 25.0643 20.6622C24.931 20.5298 24.827 20.37 24.7592 20.1936C24.6914 20.0171 24.6614 19.8281 24.6711 19.6389V19.015C24.3138 19.6608 23.786 20.1924 23.1471 20.5499C22.4833 20.914 21.7385 21.0987 20.9841 21.0865C18.0346 21.0865 16.5598 19.406 16.5598 16.0449V9.90514C16.5505 9.70639 16.583 9.50792 16.655 9.32289C16.7271 9.13786 16.837 8.9705 16.9776 8.83192C17.2804 8.5565 17.6777 8.41306 18.0837 8.43259C18.4976 8.41025 18.9035 8.55363 19.2144 8.83192C19.355 8.9705 19.465 9.13786 19.537 9.32289C19.609 9.50792 19.6415 9.70639 19.6322 9.90514V16.0699C19.5792 16.7519 19.7617 17.4314 20.1484 17.9917C20.3554 18.2126 20.6087 18.3834 20.8895 18.4914C21.1703 18.5994 21.4715 18.6419 21.7707 18.6156C22.1538 18.6317 22.5358 18.563 22.8901 18.4143C23.2445 18.2657 23.5628 18.0406 23.8231 17.7546C24.3597 17.1222 24.6369 16.3047 24.5973 15.4709V9.90514C24.5881 9.70639 24.6205 9.50792 24.6926 9.32289C24.7646 9.13786 24.8746 8.9705 25.0152 8.83192C25.3179 8.5565 25.7152 8.41306 26.1213 8.43259ZM32.0941 21.0366C31.695 21.0517 31.305 20.9135 31.0017 20.6498C30.8543 20.5082 30.7394 20.3354 30.665 20.1437C30.5907 19.9521 30.5588 19.7461 30.5715 19.5405V9.90375C30.5577 9.69968 30.5892 9.49507 30.6636 9.305C30.7381 9.11494 30.8536 8.94426 31.0017 8.80558C31.3084 8.54911 31.6971 8.41589 32.0941 8.4312C32.4951 8.41695 32.8878 8.54986 33.2002 8.80558C33.3516 8.94222 33.4701 9.11222 33.5468 9.30257C33.6235 9.49292 33.6563 9.69856 33.6426 9.90375V19.5405C33.6551 19.7472 33.6219 19.9541 33.5453 20.1461C33.4688 20.3381 33.3508 20.5102 33.2002 20.6498C32.8909 20.9125 32.4971 21.0502 32.0941 21.0366ZM38.0424 21.0366C37.6433 21.0517 37.2533 20.9135 36.9499 20.6498C36.8026 20.5082 36.6876 20.3354 36.6133 20.1437C36.539 19.9521 36.507 19.7461 36.5198 19.5405V4.6389C36.506 4.43483 36.5375 4.23022 36.6119 4.04015C36.6863 3.85008 36.8019 3.67941 36.9499 3.54072C37.2566 3.28426 37.6454 3.15104 38.0424 3.16635C38.4434 3.1521 38.8361 3.285 39.1485 3.54072C39.2998 3.67736 39.4184 3.84737 39.4951 4.03771C39.5718 4.22806 39.6045 4.43371 39.5909 4.6389V19.5391C39.6034 19.7458 39.5702 19.9528 39.4936 20.1447C39.417 20.3367 39.2991 20.5088 39.1485 20.6484C38.8394 20.9116 38.4456 21.0499 38.0424 21.0366ZM48.7099 18.7155C49.5292 18.7654 49.9389 19.1398 49.9389 19.8386C49.9468 20.02 49.9066 20.2002 49.8225 20.3604C49.7384 20.5206 49.6136 20.655 49.461 20.7496C49.0436 20.9787 48.5664 21.0703 48.0954 21.0117L47.4291 20.9617C44.6761 20.7621 43.2997 19.2646 43.2997 16.4692V11.0283H42.0707C41.7067 11.0526 41.3457 10.9466 41.0506 10.7288C40.9292 10.6207 40.834 10.4857 40.7722 10.3342C40.7104 10.1827 40.6837 10.0188 40.6942 9.85522C40.6837 9.69161 40.7104 9.52774 40.7722 9.37626C40.834 9.22479 40.9292 9.08978 41.0506 8.98167C41.3457 8.76386 41.7067 8.65789 42.0707 8.68217H43.2997V6.38599C43.2904 6.18725 43.3229 5.98878 43.3949 5.80375C43.467 5.61872 43.5769 5.45136 43.7175 5.31278C44.0284 5.03448 44.4344 4.8911 44.8482 4.91344C45.2542 4.89391 45.6515 5.03735 45.9543 5.31278C46.0949 5.45136 46.2048 5.61872 46.2769 5.80375C46.3489 5.98878 46.3814 6.18725 46.3721 6.38599V8.68495H48.4614C48.8254 8.66066 49.1864 8.76663 49.4815 8.98445C49.6029 9.09255 49.6981 9.22756 49.7599 9.37903C49.8217 9.53051 49.8484 9.69439 49.8379 9.85799C49.8484 10.0216 49.8217 10.1855 49.7599 10.337C49.6981 10.4884 49.6029 10.6234 49.4815 10.7315C49.1864 10.9494 48.8254 11.0553 48.4614 11.031H46.3721V16.6966C46.3721 17.9279 46.9293 18.5851 48.0435 18.6683L48.7099 18.7155Z" fill="#303941"/>
<path d="M129.623 0.0881348H125.911C125.864 0.0883174 125.818 0.107513 125.785 0.141538C125.751 0.175563 125.732 0.221659 125.732 0.269777V0.92355C125.732 0.971669 125.751 1.01776 125.785 1.05179C125.818 1.08581 125.864 1.10501 125.911 1.10519H127.182V4.75814C127.182 4.80626 127.201 4.85236 127.234 4.88638C127.268 4.92041 127.313 4.9396 127.361 4.93979H128.172C128.219 4.9396 128.264 4.92041 128.298 4.88638C128.332 4.85236 128.35 4.80626 128.351 4.75814V1.10519H129.621C129.669 1.10501 129.714 1.08581 129.748 1.05179C129.781 1.01776 129.8 0.971669 129.8 0.92355V0.269777C129.801 0.223117 129.784 0.177834 129.753 0.143805C129.722 0.109776 129.678 0.0897638 129.632 0.0881348H129.623ZM135.29 4.74358L134.932 0.255911C134.929 0.210427 134.908 0.168054 134.875 0.137222C134.842 0.10639 134.799 0.0893601 134.754 0.0895212H133.776C133.739 0.0897341 133.703 0.101582 133.673 0.123434C133.643 0.145285 133.62 0.176067 133.608 0.211541L132.955 2.13889C132.847 2.45087 132.714 2.93895 132.714 2.93895H132.701C132.701 2.93895 132.569 2.45364 132.46 2.13889L131.807 0.211541C131.795 0.176232 131.772 0.145618 131.742 0.123808C131.712 0.101997 131.676 0.0900328 131.639 0.0895212H130.663C130.618 0.0899875 130.575 0.107231 130.542 0.137941C130.509 0.168652 130.489 0.210664 130.484 0.255911L130.12 4.74358C130.118 4.7674 130.12 4.79137 130.128 4.81413C130.135 4.83689 130.146 4.85799 130.161 4.87622C130.177 4.89444 130.195 4.90944 130.216 4.92035C130.237 4.93126 130.26 4.93786 130.284 4.93979H131.114C131.159 4.93941 131.202 4.92183 131.236 4.89052C131.269 4.8592 131.289 4.81643 131.293 4.77062L131.429 2.75523C131.444 2.4839 131.444 2.21193 131.429 1.94061H131.443C131.443 1.94061 131.603 2.44948 131.71 2.75523L132.167 4.03989C132.18 4.07487 132.203 4.10509 132.233 4.12652C132.263 4.14795 132.299 4.15958 132.335 4.15983H133.081C133.118 4.15967 133.154 4.14809 133.184 4.12665C133.214 4.1052 133.237 4.07492 133.249 4.03989L133.708 2.75523C133.815 2.45018 133.975 1.94061 133.975 1.94061H133.984C133.969 2.21193 133.969 2.4839 133.984 2.75523L134.121 4.77062C134.124 4.81654 134.144 4.8595 134.177 4.89088C134.211 4.92226 134.254 4.93973 134.3 4.93979H135.104C135.128 4.94034 135.151 4.93613 135.173 4.92741C135.196 4.91868 135.216 4.90561 135.233 4.88893C135.25 4.87226 135.264 4.85231 135.274 4.83022C135.283 4.80814 135.288 4.78435 135.289 4.76022C135.289 4.75468 135.289 4.74912 135.289 4.74358H135.29Z" fill="#4185F4"/>
<path d="M32.9633 4.92941C33.0638 4.93901 33.1612 4.97003 33.2491 5.02045C33.3369 5.07086 33.4134 5.13953 33.4733 5.22198C33.8516 5.61161 34.2244 6.00679 34.6204 6.3777C34.8457 6.58569 34.673 6.68899 34.5453 6.80338C34.4176 6.91777 34.3357 7.16458 34.1001 6.91084C33.6905 6.46921 33.2596 6.04561 32.8315 5.62132C32.745 5.50782 32.6799 5.379 32.6397 5.24139C31.2359 5.89031 30.2862 5.72184 29.5986 4.69924C29.3394 4.29998 29.227 3.82079 29.2811 3.34575C29.3351 2.87071 29.5522 2.43019 29.8943 2.10148C30.2247 1.75009 30.6686 1.531 31.1448 1.48417C31.6211 1.43733 32.0981 1.56587 32.4888 1.84635C33.457 2.53271 33.6092 3.49361 32.9633 4.92941ZM32.6827 3.60384C32.6879 3.33352 32.614 3.0677 32.4704 2.84006C32.3267 2.61241 32.1197 2.43319 31.8757 2.32509C31.6316 2.21699 31.3614 2.18488 31.0994 2.23282C30.8373 2.28077 30.5952 2.40661 30.4036 2.59441C30.2121 2.78221 30.0797 3.02351 30.0234 3.28776C29.967 3.552 29.9891 3.82729 30.0869 4.07875C30.1847 4.33022 30.3539 4.54654 30.5729 4.70032C30.7919 4.8541 31.0509 4.93842 31.3172 4.94259C31.673 4.94852 32.0166 4.81091 32.2726 4.55993C32.5286 4.30895 32.6761 3.96511 32.6827 3.60384Z" fill="#4185F4"/>
<path d="M59.4839 21.0866C58.2736 21.094 57.0688 20.9216 55.9076 20.5749C54.9135 20.2993 53.9824 19.8282 53.167 19.1884C52.9828 19.0518 52.8348 18.8711 52.7361 18.6622C52.6375 18.4534 52.5913 18.2231 52.6017 17.9917C52.5954 17.6608 52.7042 17.3383 52.9089 17.0808C52.9915 16.9632 53.1002 16.8669 53.2261 16.7997C53.3521 16.7326 53.4918 16.6963 53.634 16.6939C53.9946 16.7148 54.3429 16.8346 54.6418 17.0405C55.3116 17.5387 56.0595 17.9184 56.8539 18.1637C57.685 18.4042 58.5461 18.521 59.4102 18.5103C60.3682 18.5713 61.3234 18.3529 62.1631 17.8808C62.4704 17.6847 62.7208 17.4091 62.8888 17.0824C63.0568 16.7557 63.1362 16.3895 63.119 16.0214C63.1227 15.7166 63.0404 15.417 62.8819 15.1581C62.7235 14.8991 62.4954 14.6916 62.2246 14.5599C61.2764 14.0986 60.2722 13.7671 59.2381 13.5741C58.032 13.3321 56.854 12.9631 55.7233 12.4731C54.9169 12.1331 54.2132 11.5831 53.6832 10.8786C53.2011 10.1501 52.9601 9.28463 52.9949 8.40768C52.9823 7.41368 53.2838 6.44174 53.8552 5.63452C54.4675 4.78791 55.2962 4.12762 56.2517 3.72519C57.343 3.25397 58.5194 3.02016 59.7052 3.03884C61.7773 2.94682 63.812 3.62073 65.4322 4.93568C65.616 5.08355 65.7704 5.26568 65.8869 5.47229C65.9843 5.67836 66.0311 5.90527 66.0235 6.13369C66.0297 6.46459 65.921 6.78714 65.7162 7.04467C65.6336 7.16221 65.5249 7.25843 65.399 7.32561C65.2731 7.39279 65.1334 7.42907 64.9911 7.43153C64.8365 7.43306 64.6827 7.40774 64.5364 7.35665C64.3447 7.28025 64.1597 7.18748 63.9834 7.07934C63.3843 6.62173 62.727 6.24858 62.0293 5.97007C61.2829 5.70997 60.4967 5.58741 59.7079 5.60817C58.7788 5.55758 57.8567 5.7971 57.0656 6.29453C56.7563 6.50178 56.5047 6.78618 56.3347 7.12049C56.1647 7.4548 56.082 7.82783 56.0947 8.20386C56.0847 8.52043 56.1594 8.83383 56.3109 9.11071C56.4624 9.38759 56.685 9.61759 56.955 9.77624C57.8721 10.2695 58.8587 10.6161 59.88 10.8037C61.0952 11.059 62.284 11.4304 63.4303 11.913C64.2439 12.248 64.9621 12.7842 65.5196 13.4729C66.0194 14.1567 66.2751 14.9929 66.2447 15.8439C66.2608 16.8241 65.9632 17.7831 65.3967 18.5769C64.7845 19.4045 63.9589 20.0441 63.0111 20.4252C61.8913 20.8846 60.6915 21.1096 59.4839 21.0866ZM78.1645 17.5175C78.2943 17.514 78.4231 17.5415 78.5406 17.5978C78.658 17.6542 78.7607 17.7378 78.8404 17.842C79.0236 18.094 79.1149 18.4028 79.0985 18.7155C79.0807 18.9963 78.9862 19.2665 78.8255 19.4958C78.6649 19.725 78.4445 19.9043 78.189 20.0134C77.5917 20.3463 76.956 20.6025 76.2964 20.776C75.6398 20.9606 74.9622 21.0571 74.2809 21.063C73.4417 21.1075 72.6023 20.98 71.8126 20.6882C71.023 20.3964 70.2992 19.9462 69.6845 19.3645C69.1036 18.7494 68.6533 18.0198 68.3615 17.2207C68.0698 16.4217 67.9428 15.5703 67.9885 14.7194C67.9665 13.5687 68.2196 12.4297 68.7259 11.3999C69.1908 10.4637 69.912 9.68373 70.8029 9.15366C71.7249 8.61342 72.774 8.33739 73.8384 8.35499C74.8279 8.33101 75.8051 8.58124 76.6651 9.07879C77.4701 9.56383 78.119 10.2758 78.5331 11.1282C78.9952 12.0998 79.2227 13.1693 79.1968 14.248C79.1968 14.9634 78.8855 15.3212 78.2628 15.3212H71.0091C71.0212 16.2541 71.36 17.1522 71.9649 17.8545C72.2857 18.1417 72.6594 18.3614 73.0645 18.5007C73.4696 18.6399 73.8979 18.696 74.3246 18.6656C74.7972 18.6743 75.2683 18.607 75.7201 18.466C76.1847 18.3078 76.6405 18.1245 77.0857 17.9169C77.4131 17.7071 77.7809 17.571 78.1645 17.5175ZM73.9122 10.5541C73.5417 10.5368 73.1719 10.5989 72.8267 10.7365C72.4815 10.8742 72.1688 11.0841 71.9089 11.3528C71.3629 11.9945 71.0459 12.8045 71.0091 13.6517H76.5668C76.595 12.8182 76.334 12.0011 75.8294 11.3431C75.5866 11.0765 75.2889 10.8677 74.9575 10.7313C74.6261 10.5949 74.2692 10.5344 73.9122 10.5541ZM86.669 8.35777C88.3404 8.35777 89.5817 8.7779 90.3928 9.61817C91.2039 10.4584 91.6095 11.7355 91.6095 13.4493V19.5392C91.6203 19.7338 91.5911 19.9286 91.5239 20.1112C91.4566 20.2937 91.3528 20.4602 91.219 20.5999C91.0725 20.7341 90.9012 20.8374 90.7151 20.9038C90.5289 20.9702 90.3317 20.9984 90.1347 20.9868C89.943 20.9939 89.7518 20.962 89.5724 20.8929C89.393 20.8239 89.229 20.7191 89.0901 20.5847C88.9544 20.4482 88.8483 20.2845 88.7784 20.104C88.7086 19.9235 88.6766 19.7302 88.6845 19.5364V18.9901C88.417 19.6275 87.9564 20.1618 87.3695 20.5153C86.7402 20.8888 86.0213 21.0779 85.2925 21.0616C84.5358 21.0716 83.7873 20.9006 83.1077 20.5625C82.4797 20.2541 81.9449 19.78 81.5592 19.1897C81.1827 18.6129 80.9849 17.9349 80.9911 17.243C80.9479 16.475 81.189 15.7183 81.667 15.1215C82.2682 14.525 83.0368 14.1326 83.8669 13.9984C85.252 13.733 86.6609 13.6168 88.07 13.6517H88.6845V13.0777C88.7393 12.4381 88.5551 11.8011 88.1684 11.2932C87.943 11.0876 87.6781 10.9315 87.3905 10.8349C87.1028 10.7383 86.7986 10.7031 86.4969 10.7316C86.0062 10.7338 85.5182 10.8052 85.0467 10.9437C84.5552 11.0852 83.9734 11.289 83.3016 11.5552C83.0151 11.7264 82.6973 11.8368 82.3676 11.8797C82.2306 11.8836 82.0945 11.8565 81.969 11.8003C81.8436 11.7442 81.7321 11.6605 81.6425 11.5552C81.4468 11.3183 81.346 11.0155 81.3598 10.7066C81.3536 10.4453 81.4266 10.1883 81.5687 9.97036C81.7543 9.7224 81.9942 9.52161 82.2692 9.38384C82.9169 9.03936 83.6079 8.7865 84.323 8.63231C85.0925 8.45227 85.8794 8.36018 86.669 8.35777ZM85.907 18.8154C86.2803 18.8287 86.6521 18.761 86.9975 18.6169C87.343 18.4727 87.6542 18.2553 87.9103 17.9793C88.438 17.3911 88.7162 16.6154 88.6845 15.8204V15.2962H88.2421C87.3875 15.2807 86.533 15.3307 85.6858 15.446C85.211 15.49 84.7587 15.672 84.3831 15.9701C84.2498 16.1026 84.1458 16.2623 84.078 16.4388C84.0102 16.6152 83.9801 16.8043 83.9898 16.9934C83.9826 17.2395 84.0284 17.4842 84.1239 17.7106C84.2194 17.9369 84.3624 18.1393 84.5429 18.3037C84.9156 18.6464 85.4044 18.8297 85.907 18.8154ZM101.196 8.40768C101.373 8.38208 101.554 8.39347 101.728 8.44114C101.901 8.48882 102.063 8.57179 102.203 8.685C102.331 8.80914 102.431 8.96054 102.495 9.12836C102.559 9.29617 102.585 9.47622 102.572 9.65561C102.587 9.83521 102.566 10.016 102.511 10.1874C102.456 10.3587 102.368 10.5173 102.252 10.6539C101.922 10.9172 101.517 11.066 101.097 11.0782L100.36 11.1559C99.9575 11.1682 99.5617 11.2631 99.1964 11.4346C98.831 11.6062 98.5036 11.8509 98.2337 12.1542C97.7702 12.7589 97.5309 13.5099 97.5578 14.2757V19.517C97.5703 19.7237 97.537 19.9306 97.4605 20.1226C97.3839 20.3145 97.266 20.4866 97.1153 20.6262C96.8061 20.889 96.4123 21.0267 96.0093 21.0131C95.6102 21.0281 95.2201 20.89 94.9168 20.6262C94.7694 20.4847 94.6545 20.3119 94.5802 20.1202C94.5058 19.9285 94.4739 19.7226 94.4867 19.517V9.85528C94.4744 9.65507 94.5067 9.45464 94.5812 9.26885C94.6557 9.08306 94.7704 8.91668 94.9168 8.78206C95.2158 8.52804 95.5964 8.39475 95.986 8.40768C96.363 8.39008 96.7324 8.51956 97.0184 8.76958C97.1537 8.90313 97.259 9.06487 97.3269 9.24368C97.3948 9.42249 97.4237 9.61411 97.4117 9.80536V10.8037C97.6927 10.1079 98.1763 9.51578 98.7977 9.10652C99.4135 8.70674 100.12 8.47466 100.85 8.43264L101.196 8.40768ZM108.741 21.0616C107.64 21.0853 106.552 20.8188 105.583 20.2879C104.684 19.7822 103.952 19.0169 103.481 18.0888C102.972 17.0604 102.718 15.9204 102.744 14.7693C102.721 13.6022 102.987 12.4479 103.518 11.4124C104.013 10.4626 104.769 9.67891 105.694 9.15644C106.68 8.61058 107.79 8.33531 108.914 8.35777C109.566 8.3606 110.215 8.4539 110.843 8.63508C111.445 8.79848 112.02 9.05075 112.55 9.38384C112.784 9.51407 112.981 9.70461 113.119 9.93632C113.258 10.168 113.334 10.4327 113.341 10.7039C113.356 11.0203 113.265 11.3326 113.083 11.5899C113.005 11.6968 112.903 11.7833 112.785 11.8419C112.667 11.9005 112.538 11.9296 112.407 11.9268C112.212 11.9237 112.02 11.8813 111.841 11.802C111.638 11.7156 111.441 11.6156 111.251 11.5025C110.923 11.3019 110.577 11.1307 110.219 10.9909C109.856 10.8601 109.473 10.7967 109.088 10.8037C108.646 10.777 108.204 10.8544 107.797 11.0297C107.389 11.2051 107.027 11.4736 106.738 11.8145C106.138 12.6565 105.847 13.6851 105.915 14.7222C105.849 15.7508 106.141 16.7703 106.738 17.6035C107.026 17.9442 107.388 18.2128 107.795 18.3884C108.202 18.564 108.644 18.6418 109.086 18.6157C109.458 18.622 109.828 18.5585 110.178 18.4285C110.545 18.2812 110.902 18.1103 111.247 17.9169C111.452 17.7887 111.665 17.6761 111.886 17.5799C112.058 17.5069 112.241 17.4687 112.427 17.4676C112.557 17.4679 112.685 17.4995 112.8 17.5598C112.915 17.62 113.015 17.7072 113.091 17.8143C113.278 18.065 113.374 18.3734 113.364 18.6878C113.37 18.9458 113.306 19.2005 113.179 19.4241C113.028 19.6593 112.821 19.8524 112.577 19.9856C112.029 20.3374 111.432 20.6033 110.806 20.7746C110.134 20.966 109.439 21.0626 108.741 21.0616ZM122.187 8.35777C125.005 8.35777 126.414 10.03 126.414 13.3744V19.5142C126.425 19.7158 126.395 19.9175 126.325 20.1066C126.255 20.2957 126.148 20.4679 126.009 20.6124C125.858 20.7507 125.681 20.8572 125.489 20.9258C125.297 20.9943 125.093 21.0235 124.89 21.0117C124.476 21.0341 124.071 20.8907 123.76 20.6124C123.617 20.4697 123.507 20.2981 123.435 20.1088C123.363 19.9195 123.331 19.7168 123.342 19.5142V13.3744C123.399 12.6862 123.212 12 122.813 11.4401C122.597 11.2218 122.337 11.054 122.05 10.9484C121.764 10.8428 121.458 10.8019 121.154 10.8287C120.761 10.8107 120.368 10.8769 120.002 11.0231C119.636 11.1693 119.304 11.3922 119.028 11.6772C118.755 11.984 118.543 12.3424 118.406 12.7321C118.269 13.1219 118.209 13.5352 118.229 13.9485V19.5142C118.24 19.7168 118.208 19.9195 118.136 20.1088C118.064 20.2981 117.954 20.4697 117.811 20.6124C117.501 20.8907 117.095 21.0341 116.681 21.0117C116.478 21.0235 116.274 20.9943 116.082 20.9258C115.89 20.8572 115.713 20.7507 115.562 20.6124C115.423 20.4679 115.316 20.2957 115.246 20.1066C115.176 19.9175 115.146 19.7158 115.157 19.5142V4.58904C115.149 4.3931 115.184 4.19787 115.258 4.01688C115.333 3.83588 115.445 3.67343 115.587 3.54078C115.895 3.26652 116.296 3.12349 116.705 3.14144C117.107 3.1216 117.502 3.25515 117.811 3.51582C117.951 3.64436 118.061 3.80283 118.134 3.97979C118.206 4.15674 118.238 4.34778 118.229 4.53912V10.3544C118.628 9.71477 119.194 9.20016 119.864 8.86803C120.589 8.51734 121.384 8.34265 122.187 8.35777Z" fill="#4185F4"/>
</svg>
